{
  "accessors": [
    {
      "bufferView": 2,
      "componentType": 5126,
      "count": 803,
      "max": [
        6.302968978881836,
        13.700236320495605,
        16.770689010620117
      ],
      "min": [
        -26.145872116088867,
        -18.684926986694336,
        -25.101837158203125
      ],
      "type": "VEC3"
    },
    {
      "bufferView": 2,
      "byteOffset": 9636,
      "componentType": 5126,
      "count": 803,
      "max": [
        0.9991012215614319,
        0.9988540410995483,
        0.9983948469161987
      ],
      "min": [
        -0.9991012811660767,
        -0.9997587203979492,
        -0.876069962978363
      ],
      "type": "VEC3"
    },
    {
      "bufferView": 1,
      "componentType": 5126,
      "count": 803,
      "max": [
        0.9999998211860657,
        0.9982234239578247
      ],
      "min": [
        0.5022599697113037,
        0.07064715027809143
      ],
      "type": "VEC2"
    },
    {
      "bufferView": 0,
      "componentType": 5125,
      "count": 4578,
      "type": "SCALAR"
    },
    {
      "bufferView": 2,
      "byteOffset": 19272,
      "componentType": 5126,
      "count": 292,
      "max": [
        8.525320053100586,
        9.439289093017578,
        15.420027732849121
      ],
      "min": [
        -28.368223190307617,
        0.4088292121887207,
        0.48215964436531067
      ],
      "type": "VEC3"
    },
    {
      "bufferView": 2,
      "byteOffset": 22776,
      "componentType": 5126,
      "count": 292,
      "max": [
        0.9956419467926025,
        0.9983392953872681,
        0.9983948469161987
      ],
      "min": [
        -0.9956419467926025,
        -0.9929035902023315,
        -0.7217249870300293
      ],
      "type": "VEC3"
    },
    {
      "bufferView": 1,
      "byteOffset": 6424,
      "componentType": 5126,
      "count": 292,
      "max": [
        0.42745503783226013,
        0.9946255683898926
      ],
      "min": [
        0.08884233981370926,
        0.6582525372505188
      ],
      "type": "VEC2"
    },
    {
      "bufferView": 0,
      "byteOffset": 18312,
      "componentType": 5125,
      "count": 1440,
      "type": "SCALAR"
    },
    {
      "bufferView": 2,
      "byteOffset": 26280,
      "componentType": 5126,
      "count": 644,
      "max": [
        2.2352118492126465,
        11.116753578186035,
        -22.884389877319336
      ],
      "min": [
        -22.078115463256836,
        -9.744014739990234,
        -52.48741912841797
      ],
      "type": "VEC3"
    },
    {
      "bufferView": 2,
      "byteOffset": 34008,
      "componentType": 5126,
      "count": 644,
      "max": [
        0.992927610874176,
        0.9982424974441528,
        0.8845980167388916
      ],
      "min": [
        -0.992927610874176,
        -0.9994876384735107,
        -0.9998049139976501
      ],
      "type": "VEC3"
    },
    {
      "bufferView": 1,
      "byteOffset": 8760,
      "componentType": 5126,
      "count": 644,
      "max": [
        0.9977574944496155,
        0.919065535068512
      ],
      "min": [
        0.34694257378578186,
        0.14238321781158447
      ],
      "type": "VEC2"
    },
    {
      "bufferView": 0,
      "byteOffset": 24072,
      "componentType": 5125,
      "count": 2502,
      "type": "SCALAR"
    },
    {
      "bufferView": 2,
      "byteOffset": 41736,
      "componentType": 5126,
      "count": 932,
      "max": [
        16.588420867919922,
        6.194478511810303,
        -24.15587615966797
      ],
      "min": [
        -36.43132781982422,
        -5.61772346496582,
        -67.75978088378906
      ],
      "type": "VEC3"
    },
    {
      "bufferView": 2,
      "byteOffset": 52920,
      "componentType": 5126,
      "count": 932,
      "max": [
        0.9995964169502258,
        0.9968963265419006,
        0.900239884853363
      ],
      "min": [
        -0.9995964169502258,
        -0.9988783597946167,
        -0.9999401569366455
      ],
      "type": "VEC3"
    },
    {
      "bufferView": 1,
      "byteOffset": 13912,
      "componentType": 5126,
      "count": 932,
      "max": [
        0.5874792337417603,
        0.832834005355835
      ],
      "min": [
        0.41201311349868774,
        0.6646002531051636
      ],
      "type": "VEC2"
    },
    {
      "bufferView": 0,
      "byteOffset": 34080,
      "componentType": 5125,
      "count": 4656,
      "type": "SCALAR"
    },
    {
      "bufferView": 2,
      "byteOffset": 64104,
      "componentType": 5126,
      "count": 1118,
      "max": [
        -0.23181748390197754,
        -10.908720016479492,
        0.9980325698852539
      ],
      "min": [
        -19.609100341796875,
        -13.901822090148926,
        -8.685506820678711
      ],
      "type": "VEC3"
    },
    {
      "bufferView": 2,
      "byteOffset": 77520,
      "componentType": 5126,
      "count": 1118,
      "max": [
        0.9902578592300415,
        0.9982091188430786,
        0.9917430281639099
      ],
      "min": [
        -0.990257978439331,
        -0.9982092976570129,
        -0.9917430281639099
      ],
      "type": "VEC3"
    },
    {
      "bufferView": 1,
      "byteOffset": 21368,
      "componentType": 5126,
      "count": 1118,
      "max": [
        1.087882399559021,
        1.0057240724563599
      ],
      "min": [
        -0.180166095495224,
        0.11400412023067474
      ],
      "type": "VEC2"
    },
    {
      "bufferView": 0,
      "byteOffset": 52704,
      "componentType": 5125,
      "count": 5760,
      "type": "SCALAR"
    }
  ],
  "asset": {
    "extras": {
      "author": "Julius (https://sketchfab.com/juleg)",
      "license": "CC-BY-SA-4.0 (http://creativecommons.org/licenses/by-sa/4.0/)",
      "source": "https://sketchfab.com/3d-models/panda-b31993aa548d4cb388848acf3ab43980",
      "title": "Panda"
    },
    "generator": "Sketchfab-12.68.0",
    "version": "2.0"
  },
  "bufferViews": [
    {
      "buffer": 0,
      "byteLength": 75744,
      "name": "floatBufferViews",
      "target": 34963
    },
    {
      "buffer": 0,
      "byteLength": 30312,
      "byteOffset": 75744,
      "byteStride": 8,
      "name": "floatBufferViews",
      "target": 34962
    },
    {
      "buffer": 0,
      "byteLength": 90936,
      "byteOffset": 106056,
      "byteStride": 12,
      "name": "floatBufferViews",
      "target": 34962
    }
  ],
  "buffers": [
    {
      "byteLength": 196992,
      "uri": "scene.bin"
    }
  ],
  "images": [
    {
      "uri": "textures/Material_16021_baseColor.jpeg"
    },
    {
      "uri": "textures/Material_16046_baseColor.jpeg"
    },
    {
      "uri": "textures/Material_16071_baseColor.jpeg"
    }
  ],
  "materials": [
    {
      "doubleSided": true,
      "name": "Material_16021",
      "pbrMetallicRoughness": {
        "baseColorTexture": {
          "index": 0
        },
        "metallicFactor": 0.0,
        "roughnessFactor": 0.8929713596
      }
    },
    {
      "doubleSided": true,
      "name": "Material_16033",
      "pbrMetallicRoughness": {
        "baseColorTexture": {
          "index": 0
        },
        "metallicFactor": 0.0,
        "roughnessFactor": 0.8929713596
      }
    },
    {
      "doubleSided": true,
      "name": "Material_16046",
      "pbrMetallicRoughness": {
        "baseColorTexture": {
          "index": 1
        },
        "metallicFactor": 0.0,
        "roughnessFactor": 0.8929713596
      }
    },
    {
      "doubleSided": true,
      "name": "Material_16059",
      "pbrMetallicRoughness": {
        "baseColorTexture": {
          "index": 1
        },
        "metallicFactor": 0.0,
        "roughnessFactor": 0.8929713596
      }
    },
    {
      "doubleSided": true,
      "name": "Material_16071",
      "pbrMetallicRoughness": {
        "baseColorTexture": {
          "index": 2
        },
        "metallicFactor": 0.0,
        "roughnessFactor": 0.3980084305289407
      }
    }
  ],
  "meshes": [
    {
      "name": "Sphere003_Material #16021_0",
      "primitives": [
        {
          "attributes": {
            "NORMAL": 1,
            "POSITION": 0,
            "TEXCOORD_0": 2
          },
          "indices": 3,
          "material": 0,
          "mode": 4
        }
      ]
    },
    {
      "name": "Sphere003_Material #16033_0",
      "primitives": [
        {
          "attributes": {
            "NORMAL": 5,
            "POSITION": 4,
            "TEXCOORD_0": 6
          },
          "indices": 7,
          "material": 1,
          "mode": 4
        }
      ]
    },
    {
      "name": "Sphere003_Material #16046_0",
      "primitives": [
        {
          "attributes": {
            "NORMAL": 9,
            "POSITION": 8,
            "TEXCOORD_0": 10
          },
          "indices": 11,
          "material": 2,
          "mode": 4
        }
      ]
    },
    {
      "name": "Sphere003_Material #16059_0",
      "primitives": [
        {
          "attributes": {
            "NORMAL": 13,
            "POSITION": 12,
            "TEXCOORD_0": 14
          },
          "indices": 15,
          "material": 3,
          "mode": 4
        }
      ]
    },
    {
      "name": "Sphere003_Material #16071_0",
      "primitives": [
        {
          "attributes": {
            "NORMAL": 17,
            "POSITION": 16,
            "TEXCOORD_0": 18
          },
          "indices": 19,
          "material": 4,
          "mode": 4
        }
      ]
    }
  ],
  "nodes": [
    {
      "children": [
        1
      ],
      "matrix": [
        1.0,
        0.0,
        0.0,
        0.0,
        0.0,
        2.220446049250313e-16,
        -1.0,
        0.0,
        0.0,
        1.0,
        2.220446049250313e-16,
        0.0,
        0.0,
        0.0,
        0.0,
        1.0
      ],
      "name": "Sketchfab_model"
    },
    {
      "children": [
        2
      ],
      "matrix": [
        1.0,
        0.0,
        0.0,
        0.0,
        0.0,
        0.0,
        1.0,
        0.0,
        0.0,
        -1.0,
        0.0,
        0.0,
        0.0,
        0.0,
        0.0,
        1.0
      ],
      "name": "panda.FBX"
    },
    {
      "children": [
        3
      ],
      "name": "RootNode"
    },
    {
      "children": [
        4,
        5,
        6,
        7,
        8
      ],
      "matrix": [
        1.228541612625122,
        0.0,
        0.0,
        0.0,
        0.0,
        2.726105395822021e-16,
        -1.2277287244796753,
        0.0,
        0.0,
        1.0,
        2.220446049250313e-16,
        0.0,
        9.866589546203613,
        79.42847442626953,
        -1.169142484664917,
        1.0
      ],
      "name": "Sphere003"
    },
    {
      "mesh": 0,
      "name": "Sphere003_Material #16021_0"
    },
    {
      "mesh": 1,
      "name": "Sphere003_Material #16033_0"
    },
    {
      "mesh": 2,
      "name": "Sphere003_Material #16046_0"
    },
    {
      "mesh": 3,
      "name": "Sphere003_Material #16059_0"
    },
    {
      "mesh": 4,
      "name": "Sphere003_Material #16071_0"
    }
  ],
  "samplers": [
    {
      "magFilter": 9729,
      "minFilter": 9987,
      "wrapS": 10497,
      "wrapT": 10497
    }
  ],
  "scene": 0,
  "scenes": [
    {
      "name": "Sketchfab_Scene",
      "nodes": [
        0
      ]
    }
  ],
  "textures": [
    {
      "sampler": 0,
      "source": 0
    },
    {
      "sampler": 0,
      "source": 1
    },
    {
      "sampler": 0,
      "source": 2
    }
  ]
}
